<svg width="40" height="40" viewBox="0 0 33 33" fill="none" xmlns="http://www.w3.org/2000/svg">
<path d="M7.07568 18.7583H10.6282V20.6333H7.07568V18.7583Z" fill="#7E7E7E"/>
<path d="M12.5676 18.7583H24.5243V20.6333H12.5676V18.7583Z" fill="#7E7E7E"/>
<path d="M7.07568 22.5112H24.5242V24.3862H7.07568V22.5112Z" fill="#7E7E7E"/>
<path d="M20.9717 26.2642H24.5242V28.1392H20.9717V26.2642Z" fill="#7E7E7E"/>
<path d="M7.07568 26.2642H15.8V28.1392H7.07568V26.2642Z" fill="#7E7E7E"/>
<path d="M3.19995 0V32H28.3999V0H3.19995ZM26.4621 30.125H5.13782V1.875H26.4621V30.125Z" fill="#7E7E7E"/>
<path d="M12.8406 15.9181H16.6488C18.9855 15.9181 20.3875 14.6206 20.3875 12.7463C20.3875 10.877 18.9855 9.66886 16.6488 9.66886H14.685V7.28249H19.3882V5.73633H12.8406V15.9181ZM14.685 14.4068V11.1703H16.6488C17.8818 11.1703 18.5629 11.8663 18.5629 12.7264C18.5629 13.6213 17.8818 14.4068 16.6488 14.4068H14.685Z" fill="#7E7E7E"/>
</svg>
