<svg width="16" height="16" viewBox="0 0 16 16" fill="none" xmlns="http://www.w3.org/2000/svg">
<path class="icon-border" d="M6.4 0.5H9.6C10.7284 0.5 11.5446 0.500389 12.1865 0.552836C12.8226 0.604807 13.2434 0.705391 13.589 0.881477C14.2475 1.21703 14.783 1.75247 15.1185 2.41103C15.2946 2.75662 15.3952 3.17744 15.4472 3.81352C15.4996 4.45545 15.5 5.27164 15.5 6.4V9.6C15.5 10.7284 15.4996 11.5446 15.4472 12.1865C15.3952 12.8226 15.2946 13.2434 15.1185 13.589C14.783 14.2475 14.2475 14.783 13.589 15.1185C13.2434 15.2946 12.8226 15.3952 12.1865 15.4472C11.5446 15.4996 10.7284 15.5 9.6 15.5H6.4C5.27164 15.5 4.45545 15.4996 3.81352 15.4472C3.17744 15.3952 2.75662 15.2946 2.41103 15.1185C1.75247 14.783 1.21703 14.2475 0.881477 13.589C0.705391 13.2434 0.604807 12.8226 0.552836 12.1865C0.500389 11.5446 0.5 10.7284 0.5 9.6V6.4C0.5 5.27164 0.500389 4.45545 0.552836 3.81352C0.604807 3.17744 0.705391 2.75662 0.881477 2.41103C1.21703 1.75247 1.75247 1.21703 2.41103 0.881477C2.75662 0.705391 3.17744 0.604807 3.81352 0.552836C4.45545 0.500389 5.27164 0.5 6.4 0.5Z" stroke="#7E7E7E"/>
</svg>
