<svg width="17" height="16" viewBox="0 0 17 16" fill="none" xmlns="http://www.w3.org/2000/svg">
<path class="background" d="M0.0400391 6.4C0.0400391 4.15979 0.0400391 3.03968 0.476013 2.18404C0.859506 1.43139 1.47143 0.819467 2.22408 0.435974C3.07972 0 4.19983 0 6.44004 0H9.95504C12.1953 0 13.3154 0 14.171 0.435974C14.9237 0.819467 15.5356 1.43139 15.9191 2.18404C16.355 3.03968 16.355 4.15979 16.355 6.4V9.6C16.355 11.8402 16.355 12.9603 15.9191 13.816C15.5356 14.5686 14.9237 15.1805 14.171 15.564C13.3154 16 12.1953 16 9.95504 16H6.44004C4.19983 16 3.07972 16 2.22408 15.564C1.47143 15.1805 0.859506 14.5686 0.476013 13.816C0.0400391 12.9603 0.0400391 11.8402 0.0400391 9.6V6.4Z" fill="#0062FF"/>
<rect x="4.11816" y="7" width="8.1575" height="2" rx="1" fill="white"/>
</svg>
