<svg width="16" height="16" viewBox="0 0 16 16" fill="none" xmlns="http://www.w3.org/2000/svg">
<path class="background" d="M0 6.4C0 4.15979 0 3.03968 0.435974 2.18404C0.819467 1.43139 1.43139 0.819467 2.18404 0.435974C3.03968 0 4.15979 0 6.4 0H9.6C11.8402 0 12.9603 0 13.816 0.435974C14.5686 0.819467 15.1805 1.43139 15.564 2.18404C16 3.03968 16 4.15979 16 6.4V9.6C16 11.8402 16 12.9603 15.564 13.816C15.1805 14.5686 14.5686 15.1805 13.816 15.564C12.9603 16 11.8402 16 9.6 16H6.4C4.15979 16 3.03968 16 2.18404 15.564C1.43139 15.1805 0.819467 14.5686 0.435974 13.816C0 12.9603 0 11.8402 0 9.6V6.4Z" fill="#0062FF"/>
<path d="M6.50987 11.4444C6.83448 11.7496 7.36777 11.7387 7.68079 11.4226L12.805 6.19008C13.0833 5.89575 13.0601 5.44881 12.7587 5.18718C12.4572 4.92556 11.9703 4.93646 11.6921 5.23079L7.06635 9.96185L4.28396 7.34559C3.99413 7.07307 3.50721 7.07307 3.21737 7.34559C2.92754 7.61812 2.92754 8.07597 3.21737 8.34849L6.50987 11.4444Z" fill="white"/>
</svg>
