<svg width="16" height="18" viewBox="0 0 16 18" fill="none" xmlns="http://www.w3.org/2000/svg">
<path fill-rule="evenodd" clip-rule="evenodd" d="M11.856 2.21169C10.9383 1.29396 9.45034 1.29396 8.53261 2.21169L2.38078 8.36352C0.955365 9.78893 0.955365 12.1 2.38078 13.5254L3.72428 14.8689C5.1497 16.2943 7.46075 16.2943 8.88616 14.8689L14.6844 9.07062C14.9383 8.81678 15.3498 8.81678 15.6037 9.07062C15.8575 9.32446 15.8575 9.73602 15.6037 9.98986L9.8054 15.7881C7.8723 17.7212 4.73814 17.7212 2.80504 15.7881L1.46154 14.4446C-0.471555 12.5115 -0.471555 9.37737 1.46154 7.44428L7.61337 1.29245C9.03878 -0.132965 11.3498 -0.132965 12.7752 1.29245L13.4824 1.99956C14.9078 3.42497 14.9078 5.73602 13.4824 7.16144L7.68408 12.9597C6.92256 13.7212 5.68789 13.7212 4.92636 12.9597L4.28997 12.3233C3.52845 11.5618 3.52844 10.3271 4.28997 9.5656L9.73469 4.12088C9.98853 3.86704 10.4001 3.86704 10.6539 4.12088C10.9078 4.37472 10.9078 4.78627 10.6539 5.04011L5.20921 10.4848C4.95536 10.7387 4.95537 11.1502 5.20921 11.4041L5.8456 12.0405C6.09944 12.2943 6.511 12.2943 6.76484 12.0405L12.5631 6.2422C13.4808 5.32446 13.4808 3.83653 12.5631 2.91879L11.856 2.21169Z" fill="#0062FF"/>
</svg>
