<svg width="16" height="16" viewBox="0 0 16 16" fill="none" xmlns="http://www.w3.org/2000/svg">
<path d="M11.5556 5.33336C11.7812 5.10773 11.7812 4.7419 11.5556 4.51626C11.3299 4.29062 10.9641 4.29062 10.7385 4.51626L8.00003 7.18294L5.33333 4.51626C5.1077 4.29062 4.74187 4.29063 4.51623 4.51626C4.2906 4.7419 4.2906 5.10773 4.51623 5.33336L7.18293 8.00004L4.51626 10.7385C4.29062 10.9641 4.29062 11.3299 4.51626 11.5556C4.74189 11.7812 5.10772 11.7812 5.33336 11.5556L8.00003 8.81714L10.6667 11.5556C10.8923 11.7812 11.2581 11.7812 11.4838 11.5556C11.7094 11.3299 11.7094 10.9641 11.4838 10.7385L8.81713 8.00004L11.5556 5.33336Z" fill="#7E7E7E"/>
<path fill-rule="evenodd" clip-rule="evenodd" d="M0 8C0 3.58172 3.58172 0 8 0C12.4183 0 16 3.58172 16 8C16 12.4183 12.4183 16 8 16C3.58172 16 0 12.4183 0 8ZM8 1.15556C4.21992 1.15556 1.15556 4.21992 1.15556 8C1.15556 11.7801 4.21992 14.8444 8 14.8444C11.7801 14.8444 14.8444 11.7801 14.8444 8C14.8444 4.21992 11.7801 1.15556 8 1.15556Z" fill="#7E7E7E"/>
</svg>
