<svg width="12" height="12" viewBox="0 0 12 12" fill="none" xmlns="http://www.w3.org/2000/svg">
  <path fill-rule="evenodd" clip-rule="evenodd" d="M0 6C0 2.68629 2.68629 0 6 0C9.31371 0 12 2.68629 12 6C12 9.31371 9.31371 12 6 12C2.68629 12 0 9.31371 0 6ZM8.66667 3.38719C8.83589 3.55641 8.83589 3.83079 8.66667 4.00001L6.61284 6.00002L8.61283 8.05384C8.78205 8.22307 8.78205 8.49744 8.61283 8.66667C8.4436 8.83589 8.16923 8.83589 8 8.66667L6.00001 6.61285L4.00001 8.66668C3.83078 8.83591 3.55641 8.8359 3.38719 8.66668C3.21796 8.49745 3.21796 8.22308 3.38718 8.05385L5.38719 6.00002L3.38717 4.00001C3.21794 3.83079 3.21794 3.55641 3.38717 3.38719C3.55639 3.21796 3.83076 3.21796 3.99999 3.38719L6.00001 5.3872L8.05384 3.38719C8.22307 3.21796 8.49744 3.21796 8.66667 3.38719Z" fill="#7E7E7E"/>
</svg>
