<svg width="15" height="16" viewBox="0 0 15 16" fill="none" xmlns="http://www.w3.org/2000/svg">
<path d="M10.2291 7.74581C10.069 7.74581 9.91779 7.68354 9.80216 7.55901C9.58868 7.31885 9.60647 6.95416 9.83774 6.74068L12.4094 4.32129H8.8949C7.74046 4.32129 6.8046 5.25715 6.8046 6.41159V10.6631C6.8046 10.9824 6.54574 11.2412 6.22643 11.2412C5.90712 11.2412 5.64826 10.9824 5.64826 10.6631V6.41159C5.64826 4.61853 7.10183 3.16496 8.8949 3.16496H12.4178L12.4178 3.15117L9.87334 1.0035C9.63318 0.790022 9.62428 0.425331 9.83776 0.185169C10.0512 -0.0460982 10.4159 -0.063888 10.6561 0.149589L14.2318 3.2668C14.5076 3.51586 14.5076 3.94281 14.2318 4.19187L10.6205 7.59459C10.5049 7.70133 10.3714 7.74581 10.2291 7.74581Z" fill="#7E7E7E"/>
<path d="M3.86928 1.76817C4.18859 1.76817 4.44745 2.02703 4.44745 2.34634C4.44745 2.66565 4.18859 2.92451 3.86928 2.92451H2.66847C1.83334 2.92451 1.15634 3.60151 1.15634 4.43664V13.3315C1.15634 14.1667 1.83334 14.8437 2.66847 14.8437H9.78438C10.6195 14.8437 11.2965 14.1667 11.2965 13.3315V9.46225C11.2965 9.14294 11.5554 8.88409 11.8747 8.88409C12.194 8.88409 12.4529 9.14294 12.4529 9.46225V13.3315C12.4529 14.8053 11.2581 16 9.78438 16H2.66847C1.19471 16 0 14.8053 0 13.3315V4.43664C0 2.96288 1.19471 1.76817 2.66847 1.76817H3.86928Z" fill="#7E7E7E"/>
</svg>
