<svg width="16" height="16" viewBox="0 0 16 16" fill="none" xmlns="http://www.w3.org/2000/svg">
<path fill-rule="evenodd" clip-rule="evenodd" d="M0.5 8C0.5 3.85786 3.85786 0.5 8 0.5C12.1421 0.5 15.5 3.85786 15.5 8C15.5 12.1421 12.1421 15.5 8 15.5C3.85786 15.5 0.5 12.1421 0.5 8ZM8 4.04167C8.34517 4.04167 8.625 4.32149 8.625 4.66667V8.83333C8.625 9.17851 8.34517 9.45833 8 9.45833C7.65482 9.45833 7.375 9.17851 7.375 8.83333V4.66667C7.375 4.32149 7.65482 4.04167 8 4.04167ZM8 11.9167C8.3912 11.9167 8.70833 11.5995 8.70833 11.2083C8.70833 10.8171 8.3912 10.5 8 10.5C7.60879 10.5 7.29166 10.8171 7.29166 11.2083C7.29166 11.5995 7.60879 11.9167 8 11.9167Z" fill="#D92020"/>
</svg>
