<svg width="32" height="32" viewBox="0 0 32 32" fill="none" xmlns="http://www.w3.org/2000/svg">
  <path fill-rule="evenodd" clip-rule="evenodd" d="M21.64 20.28C21.4 20.28 21.1733 20.1867 21 20C20.68 19.64 20.7067 19.0933 21.0533 18.7733L23.1302 16.7927H16.5333C16.0547 16.7927 15.6667 16.4046 15.6667 15.926C15.6667 15.4474 16.0547 15.0593 16.5333 15.0593H23.1208L21.0533 13.2267C20.6933 12.9067 20.68 12.36 21 12C21.32 11.6533 21.8667 11.6267 22.2267 11.9467L25.84 15.2327C26.2533 15.606 26.2533 16.246 25.84 16.6193L22.2267 20.0533C22.0533 20.2133 21.8533 20.28 21.64 20.28Z" fill="#7E7E7E"/>
  <path fill-rule="evenodd" clip-rule="evenodd" d="M18.3333 5.73333H9C8.79735 5.73333 8.60092 5.75993 8.41399 5.80981L11.2233 7.41513C12.0334 7.87804 12.5333 8.73953 12.5333 9.67256V22.1814C12.5333 23.1145 12.0334 23.976 11.2233 24.4389L8.24811 26.139C8.4834 26.2217 8.73645 26.2667 9 26.2667H18.3333C19.5852 26.2667 20.6 25.2518 20.6 24V23.5333C20.6 23.0547 20.988 22.6667 21.4667 22.6667C21.9453 22.6667 22.3333 23.0547 22.3333 23.5333V24C22.3333 26.2091 20.5425 28 18.3333 28H9C6.79086 28 5 26.2091 5 24V8C5 5.79086 6.79086 4 9 4H18.3333C20.5425 4 22.3333 5.79086 22.3333 8V8.46667C22.3333 8.94531 21.9453 9.33333 21.4667 9.33333C20.988 9.33333 20.6 8.94531 20.6 8.46667V8C20.6 6.74815 19.5852 5.73333 18.3333 5.73333ZM6.91976 24.9017L10.3633 22.9339C10.6334 22.7796 10.8 22.4925 10.8 22.1814V9.67256C10.8 8.43734 7.84566 7.48142 6.97367 6.98314C6.81991 7.28895 6.73333 7.63437 6.73333 8V24C6.73333 24.3204 6.79983 24.6253 6.91976 24.9017Z" fill="#7E7E7E"/>
</svg>