<svg width="18" height="17" viewBox="0 0 18 17" fill="none" xmlns="http://www.w3.org/2000/svg">
  <path fill-rule="evenodd" clip-rule="evenodd" d="M0.790137 0.690063C0.431152 0.690063 0.140137 0.981079 0.140137 1.34006C0.140137 1.69905 0.431152 1.99006 0.790137 1.99006H1.40572L1.5601 3.26993C1.8701 6.37993 3.9201 9.23993 6.6501 10.1699V16.0952C6.6501 16.4798 7.0662 16.7204 7.39954 16.5285L10.8295 14.5542C10.9846 14.4649 11.0801 14.2997 11.0801 14.1208V10.2499C13.9201 9.37993 16.0701 6.46993 16.3901 3.26993L16.5495 1.99006H17.2101C17.5691 1.99006 17.8601 1.69905 17.8601 1.34006C17.8601 0.981079 17.5691 0.690063 17.2101 0.690063H0.790137ZM15.1001 3.13993L15.2401 1.99993H2.7201L2.8601 3.10993C3.1201 5.79993 4.8501 8.17993 7.0701 8.93993L7.9501 9.23993V14.7099L9.7801 13.6499V9.27993L10.7001 8.99993C12.9801 8.30993 14.8301 5.83993 15.1001 3.13993Z" fill="#7E7E7E"/>
</svg>
