<svg width="12" height="4" viewBox="0 0 12 4" fill="none" xmlns="http://www.w3.org/2000/svg">
<path d="M1.33333 0.666504C2.06971 0.666504 2.66667 1.26346 2.66667 1.99984C2.66667 2.73622 2.06971 3.33317 1.33333 3.33317C0.596954 3.33317 0 2.73622 0 1.99984C0 1.26346 0.596954 0.666504 1.33333 0.666504Z" fill="#7E7E7E"/>
<path d="M10.6667 0.666504C11.403 0.666504 12 1.26346 12 1.99984C12 2.73622 11.403 3.33317 10.6667 3.33317C9.93029 3.33317 9.33333 2.73622 9.33333 1.99984C9.33333 1.26346 9.93029 0.666504 10.6667 0.666504Z" fill="#7E7E7E"/>
<path d="M7.33333 1.99984C7.33333 1.26346 6.73638 0.666504 6 0.666504C5.26362 0.666504 4.66667 1.26346 4.66667 1.99984C4.66667 2.73622 5.26362 3.33317 6 3.33317C6.73638 3.33317 7.33333 2.73622 7.33333 1.99984Z" fill="#7E7E7E"/>
</svg>
