<svg width="40" height="40" viewBox="0 0 40 40" fill="none" xmlns="http://www.w3.org/2000/svg">
<path d="M9.44849 23.4478H13.745V25.7916H9.44849V23.4478Z" fill="#7E7E7E"/>
<path d="M16.0907 23.4478H30.5516V25.7916H16.0907V23.4478Z" fill="#7E7E7E"/>
<path d="M9.44849 28.1392H30.5516V30.4829H9.44849V28.1392Z" fill="#7E7E7E"/>
<path d="M26.2551 32.8303H30.5517V35.1741H26.2551V32.8303Z" fill="#7E7E7E"/>
<path d="M9.44849 32.8303H20V35.1741H9.44849V32.8303Z" fill="#7E7E7E"/>
<path d="M4.76099 0V40H35.2391V0H4.76099ZM32.8954 37.6562H7.10474V2.34375H32.8954V37.6562Z" fill="#7E7E7E"/>
<path d="M18.4261 16.0753H20.8487V15.858C20.8615 14.6115 21.3089 14.0298 22.3189 13.4226C23.5142 12.7131 24.294 11.7734 24.294 10.2713C24.294 8.03409 22.4915 6.73011 19.9538 6.73011C17.6335 6.73011 15.7415 7.9446 15.6839 10.5014H18.2919C18.3303 9.45952 19.1037 8.90341 19.9411 8.90341C20.804 8.90341 21.5007 9.47869 21.5007 10.3672C21.5007 11.2045 20.8935 11.7607 20.1072 12.2592C19.0334 12.9368 18.4325 13.6207 18.4261 15.858V16.0753ZM19.6854 20.1662C20.5036 20.1662 21.2131 19.4822 21.2195 18.6321C21.2131 17.7947 20.5036 17.1108 19.6854 17.1108C18.8416 17.1108 18.1449 17.7947 18.1513 18.6321C18.1449 19.4822 18.8416 20.1662 19.6854 20.1662Z" fill="#7E7E7E"/>
</svg>
