<svg width="18" height="18" viewBox="0 0 18 18" fill="none" xmlns="http://www.w3.org/2000/svg">
<path d="M5.8 0.00585938C4.72304 0.00585938 3.85 0.878905 3.85 1.95586V3.05457C3.85 3.41356 4.14102 3.70457 4.5 3.70457C4.85898 3.70457 5.15 3.41356 5.15 3.05457V1.95586C5.15 1.59687 5.44102 1.30586 5.8 1.30586H12.2C12.559 1.30586 12.85 1.59688 12.85 1.95586V3.05457C12.85 3.41356 13.141 3.70457 13.5 3.70457C13.859 3.70457 14.15 3.41356 14.15 3.05457V1.95586C14.15 0.878903 13.277 0.00585938 12.2 0.00585938H5.8Z" fill="#7E7E7E"/>
<path d="M15.6957 8.48083C15.6957 9.03311 15.248 9.48083 14.6957 9.48083C14.1434 9.48083 13.6957 9.03311 13.6957 8.48083C13.6957 7.92854 14.1434 7.48083 14.6957 7.48083C15.248 7.48083 15.6957 7.92854 15.6957 8.48083Z" fill="#7E7E7E"/>
<path fill-rule="evenodd" clip-rule="evenodd" d="M14 16.7C14 17.4179 13.418 18 12.7 18H5.3C4.58203 18 4 17.4179 4 16.7L4 15H3C1.34315 15 0 13.6568 0 12V7.99998C0 6.34312 1.34315 4.99998 3 4.99998H15C16.6569 4.99998 18 6.34312 18 7.99998V12C18 13.6568 16.6569 15 15 15H14V16.7ZM12.7 16.7L5.3 16.7L5.3 11.3L12.7 11.3L12.7 16.7ZM14 13.7H15C15.9389 13.7 16.7 12.9389 16.7 12V7.99998C16.7 7.06109 15.9389 6.29998 15 6.29998H3C2.06112 6.29998 1.3 7.06109 1.3 7.99998V12C1.3 12.9389 2.06112 13.7 3 13.7H4L4 10.7C4 10.3134 4.3134 9.99998 4.7 9.99998L13.3 9.99998C13.6866 9.99998 14 10.3134 14 10.7V13.7Z" fill="#7E7E7E"/>
</svg>
