<svg width="16" height="18" viewBox="0 0 16 18" fill="none" xmlns="http://www.w3.org/2000/svg">
  <path d="M9.1792 5.24901C9.04801 5.12577 8.97204 4.95836 8.97315 4.76731C8.98309 4.4062 9.27839 4.12107 9.63221 4.12417L11.7846 4.10796L11.795 4.09676C10.7462 3.28386 9.42962 2.79999 8 2.79999C4.57583 2.79999 1.8 5.57583 1.8 8.99999C1.8 9.18419 1.80803 9.36651 1.82377 9.54663C1.85289 9.88008 1.65987 10.202 1.33927 10.2982C0.969648 10.4091 0.582034 10.1785 0.541611 9.79476C0.514104 9.5336 0.5 9.26845 0.5 8.99999C0.5 4.85786 3.85786 1.49999 8 1.49999C9.76425 1.49999 11.3862 2.10916 12.667 3.12862L12.4805 1.0922C12.4481 0.732418 12.7215 0.426748 13.0813 0.394287C13.4342 0.369114 13.7467 0.63526 13.7792 0.995046L14.0669 4.64677C14.1012 5.06309 13.7725 5.41293 13.3549 5.40476L9.61629 5.42638C9.43938 5.42483 9.29582 5.35856 9.1792 5.24901Z" fill="#7E7E7E"/>
  <path d="M6.29025 12.2936C6.42144 12.4168 6.49741 12.5842 6.49631 12.7753C6.48636 13.1364 6.19106 13.4215 5.83724 13.4184L3.68488 13.4346L3.67643 13.4437C4.7933 14.5306 6.31848 15.2 8 15.2C11.4242 15.2 14.2 12.4242 14.2 8.99999C14.2 8.61795 14.1654 8.24398 14.0993 7.88104C14.0377 7.54297 14.2109 7.19604 14.5338 7.0786C14.8872 6.95011 15.2786 7.14507 15.3527 7.51369C15.4493 7.99411 15.5 8.49113 15.5 8.99999C15.5 13.1421 12.1421 16.5 8 16.5C5.98183 16.5 4.14984 15.7029 2.8017 14.4063L2.98893 16.4504C3.02139 16.8102 2.74796 17.1158 2.38817 17.1483C2.03524 17.1735 1.72272 16.9073 1.69026 16.5475L1.40252 12.8958C1.3683 12.4795 1.69695 12.1297 2.1146 12.1378L5.85316 12.1162C6.03008 12.1178 6.17364 12.184 6.29025 12.2936Z" fill="#7E7E7E"/>
</svg>
