<svg width="40" height="40" viewBox="0 0 40 40" fill="none" xmlns="http://www.w3.org/2000/svg">
<path d="M9.44849 23.4478H13.745V25.7916H9.44849V23.4478Z" fill="#7E7E7E"/>
<path d="M16.0906 23.4478H30.5516V25.7916H16.0906V23.4478Z" fill="#7E7E7E"/>
<path d="M9.44849 28.1392H30.5516V30.4829H9.44849V28.1392Z" fill="#7E7E7E"/>
<path d="M26.2551 32.8303H30.5516V35.1741H26.2551V32.8303Z" fill="#7E7E7E"/>
<path d="M9.44849 32.8303H20V35.1741H9.44849V32.8303Z" fill="#7E7E7E"/>
<path d="M4.76099 0V40H35.2391V0H4.76099ZM32.8954 37.6562H7.10474V2.34375H32.8954V37.6562Z" fill="#7E7E7E"/>
<path d="M18.0999 17.6788C18.63 18.2089 19.5009 18.19 20.0121 17.6409L26.954 10.1316C27.4084 9.62047 27.3705 8.84427 26.8783 8.3899C26.386 7.93553 25.5909 7.95446 25.1365 8.46563L19.0087 15.1041L15.3452 11.4194C14.8719 10.9461 14.0768 10.9461 13.6035 11.4194C13.1302 11.8927 13.1302 12.6879 13.6035 13.1612L18.0999 17.6788Z" fill="#7E7E7E"/>
</svg>
