<svg width="18" height="18" viewBox="0 0 18 18" fill="none" xmlns="http://www.w3.org/2000/svg">
<path d="M5.5 5.19183C5.5 5.74412 5.05228 6.19183 4.5 6.19183C3.94772 6.19183 3.5 5.74412 3.5 5.19183C3.5 4.63955 3.94772 4.19183 4.5 4.19183C5.05228 4.19183 5.5 4.63955 5.5 5.19183Z" fill="#7E7E7E"/>
<path d="M11.37 5.19191C11.37 5.5509 11.079 5.84191 10.72 5.84191H7.50002C7.14103 5.84191 6.85001 5.5509 6.85001 5.19191C6.85001 4.83293 7.14103 4.54191 7.50002 4.54191H10.72C11.079 4.54191 11.37 4.83293 11.37 5.19191Z" fill="#7E7E7E"/>
<path d="M11.3809 8.96503C11.3809 9.32401 11.0898 9.61503 10.7309 9.61503H7.51085C7.15187 9.61503 6.86085 9.32401 6.86085 8.96503C6.86085 8.60604 7.15187 8.31503 7.51085 8.31503H10.7309C11.0898 8.31503 11.3809 8.60604 11.3809 8.96503Z" fill="#7E7E7E"/>
<path d="M11.37 12.7944C11.37 13.1534 11.079 13.4444 10.72 13.4444H7.50002C7.14103 13.4444 6.85001 13.1534 6.85001 12.7944C6.85001 12.4354 7.14103 12.1444 7.50002 12.1444L10.72 12.1444C11.079 12.1444 11.37 12.4354 11.37 12.7944Z" fill="#7E7E7E"/>
<path d="M5.52585 8.96503C5.52585 9.51731 5.07814 9.96503 4.52585 9.96503C3.97357 9.96503 3.52585 9.51731 3.52585 8.96503C3.52585 8.41274 3.97357 7.96503 4.52585 7.96503C5.07814 7.96503 5.52585 8.41274 5.52585 8.96503Z" fill="#7E7E7E"/>
<path d="M4.52585 13.7675C5.07814 13.7675 5.52585 13.3198 5.52585 12.7675C5.52585 12.2153 5.07814 11.7675 4.52585 11.7675C3.97357 11.7675 3.52585 12.2153 3.52585 12.7675C3.52585 13.3198 3.97357 13.7675 4.52585 13.7675Z" fill="#7E7E7E"/>
<path fill-rule="evenodd" clip-rule="evenodd" d="M16.39 5.78998C17.2283 5.78998 17.2283 4.48998 16.39 4.48998H15V3C15 1.34 13.66 0 12 0H3C1.34 0 0 1.34 0 3V14.965C0 16.625 1.34 17.965 3 17.965H12C13.66 17.965 15 16.615 15 14.965V13.465H16.39C16.749 13.465 17.04 13.174 17.04 12.815C17.04 12.456 16.749 12.165 16.39 12.165H15V5.78998H16.39ZM12 1.3C12.94 1.3 13.7 2.06 13.7 3L13.7 14.965C13.7 15.905 12.94 16.665 12 16.665H3C2.06 16.665 1.3 15.905 1.3 14.965L1.3 3C1.3 2.06 2.06 1.3 3 1.3L12 1.3Z" fill="#7E7E7E"/>
</svg>
