<svg width="16" height="14" viewBox="0 0 16 14" fill="none" xmlns="http://www.w3.org/2000/svg">
<path d="M6.62448 1.73838C7.35753 1.40135 8.17318 1.20813 9.03932 1.20813C12.2099 1.20813 14.7919 3.782 14.7919 6.96068C14.7919 10.1399 12.2186 12.7132 9.03932 12.7132C5.8618 12.7132 3.29607 10.1324 3.29607 6.96068C3.29607 6.85909 3.29868 6.75807 3.30389 6.65772L4.31832 7.74132C4.43914 7.87142 4.60642 7.93647 4.7644 7.93647C4.91309 7.93647 5.05249 7.89001 5.15472 7.7692C5.39635 7.53686 5.41493 7.15584 5.1826 6.91421L3.14737 4.73029C2.89645 4.45149 2.45967 4.45149 2.19945 4.73029L0.164221 6.91421C-0.0681114 7.15584 -0.0495248 7.53686 0.192101 7.7692C0.433726 8.00153 0.814752 7.98294 1.04708 7.74132L2.0961 6.62077C2.09066 6.73368 2.08794 6.84701 2.08794 6.96068C2.08794 10.7961 5.19112 13.9214 9.03932 13.9214C12.8858 13.9214 16 10.8072 16 6.96068C16 3.11362 12.8759 0 9.03932 0C7.99105 0 7.0038 0.234275 6.11981 0.640708C5.8167 0.78007 5.68395 1.13877 5.82331 1.44188C5.96267 1.74499 6.32137 1.87774 6.62448 1.73838Z" fill="#7E7E7E"/>
</svg>
