<svg width="40" height="40" viewBox="0 0 40 40" fill="none" xmlns="http://www.w3.org/2000/svg">
<path d="M28.2031 2.31078V0H11.7969V2.31078H4.375V40H35.625V2.31078H28.2031ZM14.1406 2.34375H25.8594V4.65453H14.1406V2.34375ZM33.2812 37.6562H6.71875V4.65453H11.7969V6.99828H28.2031V4.65453H33.2812V37.6562Z" fill="#7E7E7E"/>
<path d="M16.0938 9.73267H9.0625V16.7639H16.0938V9.73267ZM13.75 14.4202H11.4062V12.0764H13.75V14.4202Z" fill="#7E7E7E"/>
<path d="M19.9902 12.0764H30.9375V14.4202H19.9902V12.0764Z" fill="#7E7E7E"/>
<path d="M16.0938 19.4202H9.0625V26.4514H16.0938V19.4202ZM13.75 24.1077H11.4062V21.7639H13.75V24.1077Z" fill="#7E7E7E"/>
<path d="M19.9902 21.7639H30.9375V24.1077H19.9902V21.7639Z" fill="#7E7E7E"/>
<path d="M19.9902 31.2952H30.9375V33.6389H19.9902V31.2952Z" fill="#7E7E7E"/>
<path d="M11.6407 32.4503L10.1255 30.9352L8.46832 32.5925L11.6407 35.7649L16.7661 30.6394L15.1089 28.9821L11.6407 32.4503Z" fill="#7E7E7E"/>
</svg>
