<svg width="16" height="16" viewBox="0 0 16 16" fill="none" xmlns="http://www.w3.org/2000/svg">
<path fill-rule="evenodd" clip-rule="evenodd" d="M5.52137 4.38059C5.52137 4.08144 5.76388 3.83893 6.06303 3.83893H8.83623C10.3652 3.83893 11.6047 5.07841 11.6047 6.6074C11.6047 8.13638 10.3652 9.37586 8.83623 9.37586H6.6047V10.2495H9.12121C9.42036 10.2495 9.66288 10.492 9.66288 10.7912C9.66288 11.0903 9.42036 11.3328 9.12121 11.3328H6.6047V12.0393C6.6047 12.3385 6.36219 12.581 6.06303 12.581C5.76388 12.581 5.52137 12.3385 5.52137 12.0393V11.3328H4.93685C4.63769 11.3328 4.39518 11.0903 4.39518 10.7912C4.39518 10.492 4.63769 10.2495 4.93685 10.2495H5.52137V9.37586H4.94173C4.64258 9.37586 4.40006 9.13335 4.40006 8.8342C4.40006 8.53504 4.64258 8.29253 4.94173 8.29253H5.52137V4.38059ZM6.6047 8.29253H8.83623C9.76691 8.29253 10.5214 7.53807 10.5214 6.6074C10.5214 5.67672 9.76691 4.92226 8.83623 4.92226H6.6047V8.29253Z" fill="#7E7E7E"/>
<path fill-rule="evenodd" clip-rule="evenodd" d="M15.5 8C15.5 12.1421 12.1421 15.5 8 15.5C3.85786 15.5 0.5 12.1421 0.5 8C0.5 3.85786 3.85786 0.5 8 0.5C12.1421 0.5 15.5 3.85786 15.5 8ZM14.4167 8C14.4167 11.5438 11.5438 14.4167 8 14.4167C4.45617 14.4167 1.58333 11.5438 1.58333 8C1.58333 4.45617 4.45617 1.58333 8 1.58333C11.5438 1.58333 14.4167 4.45617 14.4167 8Z" fill="#7E7E7E"/>
</svg>
