<svg width="16" height="17" viewBox="0 0 16 17" fill="none" xmlns="http://www.w3.org/2000/svg">
<path fill-rule="evenodd" clip-rule="evenodd" d="M3.77672 16H13C14.6569 16 16 14.6569 16 13V6.24264C16 5.44699 15.6839 4.68393 15.1213 4.12132L11.8787 0.87868C11.3161 0.316071 10.553 0 9.75736 0H2.99273C1.33922 0.00392181 0 1.34557 0 3V13C0 14.6569 1.34315 16 3 16H3.53188C3.57152 16.0076 3.61245 16.0115 3.6543 16.0115C3.69615 16.0115 3.73707 16.0076 3.77672 16ZM13.0103 14.7V9.70002C13.0103 8.95444 12.4059 8.35002 11.6603 8.35002L4.35429 8.35004C3.60871 8.35004 3.0043 8.95446 3.0043 9.70004V14.7H3C2.06112 14.7 1.3 13.9389 1.3 13V3C1.3 2.06354 2.05719 1.30393 2.99273 1.30002V4.29998C2.99273 5.04556 3.59715 5.64998 4.34273 5.64998H8.64833C9.39392 5.64998 9.99833 5.04556 9.99833 4.29998V1.31716C10.3601 1.36896 10.698 1.53646 10.9594 1.79792L14.2021 5.04056C14.5209 5.35937 14.7 5.79177 14.7 6.24264V13C14.7 13.9354 13.9445 14.6944 13.0103 14.7ZM11.7103 14.7V9.70002C11.7103 9.67241 11.688 9.65002 11.6603 9.65002L4.3543 9.65004C4.32668 9.65004 4.3043 9.67242 4.3043 9.70004V14.7H11.7103ZM8.69833 4.29998V1.3H4.29273V4.29998C4.29273 4.32759 4.31512 4.34998 4.34273 4.34998H8.64833C8.67595 4.34998 8.69833 4.32759 8.69833 4.29998Z" fill="#7E7E7E"/>
</svg>
