<svg width="16" height="16" viewBox="0 0 14 14" fill="none" xmlns="http://www.w3.org/2000/svg">
<path fill-rule="evenodd" clip-rule="evenodd" d="M0.333374 6.16683C0.333374 2.94183 2.94171 0.333496 6.16671 0.333496C9.39171 0.333496 12 2.94183 12 6.16683C12 7.63526 11.4593 8.97584 10.5658 10.0006L13.4836 12.926C13.6948 13.1378 13.6944 13.4808 13.4826 13.692C13.2707 13.9033 12.9278 13.9028 12.7165 13.691L9.7811 10.7479C8.78777 11.5323 7.53254 12.0002 6.16671 12.0002C2.94171 12.0002 0.333374 9.39183 0.333374 6.16683ZM10.9167 6.16683C10.9167 3.55016 8.78337 1.41683 6.16671 1.41683C3.55004 1.41683 1.41671 3.55016 1.41671 6.16683C1.41671 8.7835 3.55004 10.9168 6.16671 10.9168C8.78337 10.9168 10.9167 8.7835 10.9167 6.16683Z" fill="#7E7E7E"/>
</svg>
