<svg width="9" height="11" viewBox="0 0 9 11" fill="none" xmlns="http://www.w3.org/2000/svg">
<path d="M8.09878 5.30506C8.19212 5.39173 8.23878 5.50506 8.23878 5.62506C8.23878 5.73173 8.20545 5.83173 8.12545 5.9184L4.46545 9.94506C4.27878 10.1517 3.95878 10.1517 3.77212 9.94506L0.112117 5.9184C-0.0478835 5.7384 -0.0345502 5.46507 0.138783 5.30506C0.318783 5.14506 0.592116 5.15173 0.752117 5.33173L3.68545 8.55549L3.68545 1.29173C3.68545 1.05241 3.87946 0.858398 4.11878 0.858398C4.35811 0.858398 4.55211 1.05241 4.55211 1.29173L4.55212 8.55549L7.48545 5.33173C7.64545 5.1584 7.91878 5.14506 8.09878 5.30506Z" fill="#7E7E7E"/>
</svg>
